<svg width="226" height="48" viewBox="0 0 226 48" fill="none" xmlns="http://www.w3.org/2000/svg">
<rect width="226" height="48" rx="8" fill="black"/>
<path d="M181.704 18.8966C181.352 18.8103 180.982 18.7759 180.612 18.7759C179.973 18.7759 179.352 18.8966 178.763 19.1034V17.8276C178.763 15.3621 179.772 14 182.377 14H183.587V16.6034H183.217C182.209 16.6034 181.704 17.1897 181.704 18.1897V18.8966Z" fill="white"/>
<path d="M196.896 22.6897C196.342 22.6897 195.972 22.3621 195.972 21.6897V17.8276C195.972 15.3621 194.964 14 192.359 14H191.149V16.6034H191.519C192.544 16.6034 193.031 17.1724 193.031 18.1897V21.6035C193.031 23.0862 193.468 23.6897 194.426 24C193.468 24.2931 193.031 24.9138 193.031 26.3965V28.9311C193.031 29.6379 193.031 30.3276 192.846 31.0345C192.661 31.6897 192.359 32.3103 191.939 32.8448C191.704 33.1552 191.435 33.4138 191.132 33.6552V34H192.342C194.947 34 195.955 32.6379 195.955 30.1724V26.3103C195.955 25.6207 196.308 25.3103 196.88 25.3103H197.569V22.7069H196.896V22.6897Z" fill="white"/>
<path d="M188.662 17.9316H184.931C184.847 17.9316 184.78 17.8626 184.78 17.7764V17.4833C184.78 17.3971 184.847 17.3281 184.931 17.3281H188.679C188.763 17.3281 188.83 17.3971 188.83 17.4833V17.7764C188.83 17.8626 188.746 17.9316 188.662 17.9316Z" fill="white"/>
<path d="M186.578 21.6555H189.3C189.384 21.6555 189.452 21.5693 189.452 21.5003V21.2073C189.452 21.1211 189.384 21.0521 189.3 21.0521H186.578C186.494 21.0521 186.427 21.1211 186.427 21.2073V21.5003C186.427 21.5865 186.494 21.6555 186.578 21.6555Z" fill="white"/>
<path d="M190.376 19.7936H184.931C184.847 19.7936 184.78 19.7246 184.78 19.6384V19.3453C184.78 19.2591 184.847 19.1901 184.931 19.1901H190.359C190.443 19.1901 190.51 19.2591 190.51 19.3453V19.6384C190.51 19.7073 190.46 19.7936 190.376 19.7936Z" fill="white"/>
<path d="M191.519 28.1548C191.25 25.9651 189.603 24.1375 187.485 23.7237C186.897 23.6031 186.309 23.5858 185.738 23.6893C185.733 23.6893 185.73 23.688 185.727 23.6862C185.725 23.6847 185.723 23.6826 185.721 23.6806C185.717 23.6763 185.712 23.672 185.704 23.672C184.78 21.6893 182.797 20.3789 180.646 20.3789C178.495 20.3789 176.528 21.6548 175.587 23.6375C175.579 23.6375 175.575 23.6418 175.57 23.6462C175.566 23.6505 175.562 23.6548 175.554 23.6548C174.949 23.5858 174.344 23.6203 173.739 23.7755C171.655 24.2927 170.075 26.0858 169.789 28.2582C169.756 28.4823 169.739 28.7065 169.739 28.9134C169.739 29.5685 170.176 30.172 170.814 30.2582C171.604 30.3789 172.293 29.7582 172.277 28.9651C172.277 28.8444 172.277 28.7065 172.293 28.5858C172.428 27.4823 173.251 26.5513 174.327 26.2927C174.663 26.2065 174.999 26.1893 175.318 26.241C176.343 26.3789 177.352 25.8444 177.789 24.9134C178.108 24.2237 178.612 23.6203 179.284 23.2927C180.024 22.9306 180.864 22.8789 181.637 23.1548C182.444 23.4479 183.049 24.0685 183.419 24.8444C183.455 24.9168 183.49 24.9871 183.524 25.0552C183.846 25.7011 184.068 26.1474 184.813 26.241C185.149 26.2927 186.091 26.2755 186.443 26.2582C187.132 26.2582 187.822 26.4996 188.309 26.9996C188.628 27.3444 188.863 27.7755 188.964 28.2582C189.116 29.0341 188.931 29.8099 188.477 30.3961C188.158 30.8099 187.721 31.1203 187.233 31.2582C186.998 31.3272 186.763 31.3444 186.527 31.3444H182.813C182.074 31.3444 181.486 30.741 181.486 29.9823V24.9306C181.486 24.7237 181.318 24.5513 181.116 24.5513H180.595C179.57 24.5685 178.747 25.741 178.747 26.9823V31.5169C178.747 32.8617 179.805 33.9479 181.116 33.9479C181.116 33.9479 186.948 33.9306 187.032 33.9306C188.376 33.7927 189.62 33.0858 190.46 31.9996C191.3 30.9479 191.687 29.5685 191.519 28.1548Z" fill="white"/>
<path fill-rule="evenodd" clip-rule="evenodd" d="M32.7755 19.4162C35.2545 19.4162 37.1196 21.2166 37.1196 24.2727C37.1196 27.3288 35.2545 29.1293 32.7755 29.1293C30.2918 29.1293 28.4314 27.3242 28.4314 24.2727C28.4314 21.2166 30.2918 19.4162 32.7755 19.4162ZM32.7755 27.592C34.3174 27.592 35.3977 26.424 35.3977 24.2727C35.3977 22.1214 34.3174 20.9535 32.7755 20.9535C31.2382 20.9535 30.1533 22.1214 30.1533 24.2727C30.1533 26.424 31.2382 27.592 32.7755 27.592Z" fill="white"/>
<path fill-rule="evenodd" clip-rule="evenodd" d="M42.4515 29H40.7388V19.5455H44.2843C46.4587 19.5455 47.6174 20.8704 47.6174 22.6754C47.6174 24.4943 46.4448 25.8054 44.2612 25.8054H42.4515V29ZM42.4515 20.9766V24.3974H44.0304C45.3045 24.3974 45.8724 23.6818 45.8724 22.6754C45.8724 21.669 45.3045 20.9766 44.0212 20.9766H42.4515Z" fill="white"/>
<path d="M57.2911 29H51.105V19.5455H57.2542V20.9812H52.8178V23.5479H56.9357V24.9837H52.8178V27.5643H57.2911V29Z" fill="white"/>
<path d="M67.0676 19.5455H68.7711V29H67.2476L62.7927 22.56H62.7142V29H61.0015V19.5455H62.5342L66.9845 25.9901H67.0676V19.5455Z" fill="white"/>
<path d="M77.8619 19.5455H79.5746V29H77.8619V19.5455Z" fill="white"/>
<path d="M89.4953 19.5455H91.1988V29H89.6754L85.2205 22.56H85.142V29H83.4293V19.5455H84.9619L89.4122 25.9901H89.4953V19.5455Z" fill="white"/>
<path d="M104.38 19.4162C106.476 19.4162 108.091 20.6349 108.382 22.7354H106.656C106.457 21.6044 105.557 20.9535 104.408 20.9535C102.861 20.9535 101.772 22.1399 101.772 24.2727C101.772 26.4425 102.87 27.592 104.403 27.592C105.534 27.592 106.439 26.9688 106.656 25.8608L108.382 25.87C108.119 27.6751 106.628 29.1293 104.38 29.1293C101.887 29.1293 100.05 27.3242 100.05 24.2727C100.05 21.2166 101.91 19.4162 104.38 19.4162Z" fill="white"/>
<path fill-rule="evenodd" clip-rule="evenodd" d="M116.055 19.4162C118.534 19.4162 120.399 21.2166 120.399 24.2727C120.399 27.3288 118.534 29.1293 116.055 29.1293C113.571 29.1293 111.711 27.3242 111.711 24.2727C111.711 21.2166 113.571 19.4162 116.055 19.4162ZM116.055 27.592C117.597 27.592 118.677 26.424 118.677 24.2727C118.677 22.1214 117.597 20.9535 116.055 20.9535C114.518 20.9535 113.433 22.1214 113.433 24.2727C113.433 26.424 114.518 27.592 116.055 27.592Z" fill="white"/>
<path fill-rule="evenodd" clip-rule="evenodd" d="M131.811 24.2635C131.811 27.218 130.103 29 127.222 29H124.018V19.5455H127.287C130.103 19.5455 131.811 21.3182 131.811 24.2635ZM125.731 21.0273V27.5181H127.139C129.11 27.5181 130.112 26.4379 130.112 24.2635C130.112 22.0984 129.11 21.0273 127.19 21.0273H125.731Z" fill="white"/>
<path d="M141.624 29H135.438V19.5455H141.587V20.9812H137.151V23.5479H141.269V24.9837H137.151V27.5643H141.624V29Z" fill="white"/>
<path fill-rule="evenodd" clip-rule="evenodd" d="M147.047 29H145.335V19.5455H148.88C151.05 19.5455 152.213 20.7642 152.213 22.5692C152.213 23.8526 151.627 24.8036 150.514 25.2514L152.559 29H150.648L148.792 25.5376H147.047V29ZM147.047 20.9766V24.1158H148.626C149.896 24.1158 150.468 23.5756 150.468 22.5692C150.468 21.5629 149.896 20.9766 148.617 20.9766H147.047Z" fill="white"/>
</svg>
